<svg xmlns="http://www.w3.org/2000/svg" xmlns:xlink="http://www.w3.org/1999/xlink" version="1.1" viewBox="0 0 350 350" xml:space="preserve">
    <desc>Created with Fabric.js 1.7.22</desc>
    <defs>
    </defs>
    <g id="icon" style="stroke: none; stroke-width: 1; stroke-dasharray: none; stroke-linecap: butt; stroke-linejoin: miter; stroke-miterlimit: 10; fill: none; fill-rule: nonzero; opacity: 1;" transform="translate(16.25555555555556 16.25555555555556) scale(3.49 3.49)" >
        <path d="M 44.93 90 c -0.384 0 -0.769 -0.146 -1.062 -0.439 c -0.587 -0.586 -0.587 -1.535 0 -2.121 L 86.373 45 L 43.867 2.561 c -0.587 -0.585 -0.587 -1.536 0 -2.121 c 0.587 -0.586 1.538 -0.586 2.124 0 l 43.568 43.5 c 0.587 0.585 0.587 1.536 0 2.121 l -43.568 43.5 C 45.698 89.854 45.314 90 44.93 90 z" style="stroke: black; stroke-width: 10px; stroke-dasharray: none; stroke-linecap: butt; stroke-linejoin: miter; stroke-miterlimit: 10; fill: rgb(0,0,0); fill-rule: nonzero; opacity: 1;" transform=" matrix(1 0 0 1 0 0) " stroke-linecap="round" />
        <path d="M 88.498 46.5 H 1.502 C 0.672 46.5 0 45.829 0 45 s 0.672 -1.5 1.502 -1.5 h 86.995 C 89.327 43.5 90 44.171 90 45 S 89.327 46.5 88.498 46.5 z" style="stroke: black; stroke-width: 10px; stroke-dasharray: none; stroke-linecap: butt; stroke-linejoin: miter; stroke-miterlimit: 10; fill: rgb(0,0,0); fill-rule: nonzero; opacity: 1;" transform=" matrix(1 0 0 1 0 0) " stroke-linecap="round" />
    </g>
</svg>