<svg xmlns="http://www.w3.org/2000/svg" xmlns:xlink="http://www.w3.org/1999/xlink" version="1.1" viewBox="0 0 350 350" xml:space="preserve">
    <desc>Created with Fabric.js 1.7.22</desc>
    <defs>
    </defs>
    <g id="icon" style="stroke: none; stroke-width: 1; stroke-dasharray: none; stroke-linecap: butt; stroke-linejoin: miter; stroke-miterlimit: 10; fill: none; fill-rule: nonzero; opacity: 1;" transform="translate(-1.9444444444444287 -1.9444444444444287) scale(3.89 3.89)" >
        <path d="M 62.263 90 H 27.738 C 12.443 90 0 77.557 0 62.263 V 27.738 C 0 12.443 12.443 0 27.738 0 h 34.525 C 77.557 0 90 12.443 90 27.738 v 34.525 C 90 77.557 77.557 90 62.263 90 z M 27.738 7 C 16.303 7 7 16.303 7 27.738 v 34.525 C 7 73.697 16.303 83 27.738 83 h 34.525 C 73.697 83 83 73.697 83 62.263 V 27.738 C 83 16.303 73.697 7 62.263 7 H 27.738 z" style="stroke: none; stroke-width: 1; stroke-dasharray: none; stroke-linecap: butt; stroke-linejoin: miter; stroke-miterlimit: 10; fill: rgb(0,0,0); fill-rule: nonzero; opacity: 1;" transform=" matrix(1 0 0 1 0 0) " stroke-linecap="round" />
        <circle cx="45.254999999999995" cy="45.254999999999995" r="21.715" style="stroke: none; stroke-width: 1; stroke-dasharray: none; stroke-linecap: butt; stroke-linejoin: miter; stroke-miterlimit: 10; fill: rgb(0,0,0); fill-rule: nonzero; opacity: 1;" transform="  matrix(1 0 0 1 0 0) "/>
        <circle cx="68.557" cy="21.947000000000003" r="4.897" style="stroke: none; stroke-width: 1; stroke-dasharray: none; stroke-linecap: butt; stroke-linejoin: miter; stroke-miterlimit: 10; fill: rgb(0,0,0); fill-rule: nonzero; opacity: 1;" transform="  matrix(1 0 0 1 0 0) "/>
    </g>
</svg>